<svg width="77" height="76" viewBox="0 0 77 76" fill="none" xmlns="http://www.w3.org/2000/svg">
<g clip-path="url(#clip0_1_229)">
<path opacity="0.06" d="M55.4036 0.265625H21.6277C10.08 0.265625 0.71875 9.62687 0.71875 21.1745V54.9505C0.71875 66.4981 10.08 75.8594 21.6277 75.8594H55.4036C66.9513 75.8594 76.3125 66.4981 76.3125 54.9505V21.1745C76.3125 9.62687 66.9513 0.265625 55.4036 0.265625Z" fill="#0089FF"/>
<path d="M38.5158 63.803C52.7318 63.803 64.2562 52.2786 64.2562 38.0626C64.2562 23.8466 52.7318 12.3222 38.5158 12.3222C24.2997 12.3222 12.7754 23.8466 12.7754 38.0626C12.7754 52.2786 24.2997 63.803 38.5158 63.803Z" fill="#1B76FF"/>
<path fill-rule="evenodd" clip-rule="evenodd" d="M25.1055 32.9687H29.7513V51.1298H25.1055C24.406 51.1298 23.8389 50.5898 23.8389 49.9236V34.175C23.8389 33.5088 24.406 32.9687 25.1055 32.9687Z" stroke="white" stroke-width="1.60838" stroke-linecap="round" stroke-linejoin="round"/>
<path fill-rule="evenodd" clip-rule="evenodd" d="M51.78 47.7297C51.4859 49.9931 49.9736 51.1299 47.2851 51.1299H33.2175C31.3062 51.1299 29.752 49.667 29.752 47.8681V32.9905C34.2132 32.5556 36.4438 30.9982 36.4438 26.8104V24.8035C36.4438 22.6883 38.2443 20.9735 40.4653 20.9735C41.3117 20.9735 42.1365 21.2278 42.8223 21.7003C43.7674 22.3526 44.3697 23.5882 44.3697 25.3673V31.1765C44.3697 31.6707 45.2062 32.0759 46.0427 32.0759H50.5302C52.4206 32.0759 53.9539 33.4992 53.9958 35.2685C54.0239 36.448 53.2853 40.0991 51.78 47.7297Z" stroke="white" stroke-width="1.60838" stroke-linecap="round" stroke-linejoin="round"/>
</g>
<defs>
<clipPath id="clip0_1_229">
<rect width="75.5938" height="75.5938" fill="white" transform="translate(0.71875 0.265625)"/>
</clipPath>
</defs>
</svg>
