<svg width="76" height="76" viewBox="0 0 76 76" fill="none" xmlns="http://www.w3.org/2000/svg">
<g clip-path="url(#clip0_5_20)">
<path opacity="0.06" d="M54.9787 0H21.0213C9.41155 0 0 9.41155 0 21.0213V54.9787C0 66.5885 9.41155 76 21.0213 76H54.9787C66.5885 76 76 66.5885 76 54.9787V21.0213C76 9.41155 66.5885 0 54.9787 0Z" fill="#F6CA4F"/>
<path d="M37.9998 63.8788C52.2923 63.8788 63.8785 52.2925 63.8785 38.0001C63.8785 23.7076 52.2923 12.1213 37.9998 12.1213C23.7074 12.1213 12.1211 23.7076 12.1211 38.0001C12.1211 52.2925 23.7074 63.8788 37.9998 63.8788Z" fill="#FF6D35"/>
<path d="M47.5508 49.6729H28.4498C26.1152 49.6729 24.2051 47.7628 24.2051 45.4282V30.5718C24.2051 28.2372 26.1152 26.3271 28.4498 26.3271H47.5508C49.8854 26.3271 51.7955 28.2372 51.7955 30.5718V45.4282C51.7955 47.7628 49.8854 49.6729 47.5508 49.6729Z" stroke="white" stroke-width="2" stroke-miterlimit="10" stroke-linecap="round" stroke-linejoin="round"/>
<path d="M24.2051 31.633L38.0003 40.1223L51.7955 31.633" stroke="white" stroke-width="2" stroke-miterlimit="10" stroke-linecap="round" stroke-linejoin="round"/>
</g>
<defs>
<clipPath id="clip0_5_20">
<rect width="76" height="76" fill="white"/>
</clipPath>
</defs>
</svg>
