<svg width="76" height="77" viewBox="0 0 76 77" fill="none" xmlns="http://www.w3.org/2000/svg">
<g clip-path="url(#clip0_1_254)">
<path opacity="0.06" d="M55.0286 0.859375H21.2527C9.70499 0.859375 0.34375 10.2206 0.34375 21.7683V55.5442C0.34375 67.0919 9.70499 76.4531 21.2527 76.4531H55.0286C66.5763 76.4531 75.9375 67.0919 75.9375 55.5442V21.7683C75.9375 10.2206 66.5763 0.859375 55.0286 0.859375Z" fill="#5CC97B"/>
<path d="M38.1408 64.3967C52.3568 64.3967 63.8812 52.8724 63.8812 38.6563C63.8812 24.4403 52.3568 12.9159 38.1408 12.9159C23.9247 12.9159 12.4004 24.4403 12.4004 38.6563C12.4004 52.8724 23.9247 64.3967 38.1408 64.3967Z" fill="#5CC97B"/>
<path fill-rule="evenodd" clip-rule="evenodd" d="M40.8972 45.0292C39.0541 46.2479 36.8245 46.9189 34.4486 46.8208C28.4395 46.5726 23.7691 41.4995 24.0173 35.4901C24.2654 29.4807 29.3383 24.8111 35.3474 25.0593C41.3556 25.3073 46.027 30.3794 45.7789 36.3889C45.6914 38.5072 45.0043 40.4592 43.888 42.088L51.2246 49.2115C52.1298 50.1929 52.0974 51.7099 51.1673 52.6499L51.1245 52.6893L51.0793 52.7284C50.0684 53.5779 48.5538 53.4868 47.6495 52.5046L40.8972 45.0292ZM34.5524 44.309C29.9301 44.1181 26.3373 40.2157 26.5283 35.5935C26.7192 30.9713 30.6215 27.3785 35.2437 27.5694C39.866 27.7603 43.4588 31.6626 43.2679 36.2848C43.077 40.9071 39.1746 44.4999 34.5524 44.309Z" fill="white"/>
</g>
<defs>
<clipPath id="clip0_1_254">
<rect width="75.5938" height="75.5938" fill="white" transform="translate(0.34375 0.859375)"/>
</clipPath>
</defs>
</svg>
