<svg width="315" height="19" viewBox="0 0 315 19" fill="none" xmlns="http://www.w3.org/2000/svg">
<g clip-path="url(#clip0_1_464)">
<path fill-rule="evenodd" clip-rule="evenodd" d="M10.1252 14.0549L4.35757 17.8342L6.16964 11.181L0.792969 6.86352L7.68053 6.53094L10.1252 0.083252L12.5699 6.53094L19.4575 6.86352L14.0808 11.181L15.8929 17.8342L10.1252 14.0549Z" fill="#FFC54F"/>
</g>
<g clip-path="url(#clip1_1_464)">
<path fill-rule="evenodd" clip-rule="evenodd" d="M34.7502 14.0549L28.9826 17.8342L30.7946 11.181L25.418 6.86352L32.3055 6.53094L34.7502 0.083252L37.1949 6.53094L44.0825 6.86352L38.7058 11.181L40.5179 17.8342L34.7502 14.0549Z" fill="#FFC54F"/>
</g>
<g clip-path="url(#clip2_1_464)">
<path fill-rule="evenodd" clip-rule="evenodd" d="M59.3752 14.0549L53.6076 17.8342L55.4196 11.181L50.043 6.86352L56.9305 6.53094L59.3752 0.083252L61.8199 6.53094L68.7075 6.86352L63.3308 11.181L65.1429 17.8342L59.3752 14.0549Z" fill="#FFC54F"/>
</g>
<g clip-path="url(#clip3_1_464)">
<path fill-rule="evenodd" clip-rule="evenodd" d="M84.0002 14.0549L78.2326 17.8342L80.0446 11.181L74.668 6.86352L81.5555 6.53094L84.0002 0.083252L86.4449 6.53094L93.3325 6.86352L87.9558 11.181L89.7679 17.8342L84.0002 14.0549Z" fill="#FFC54F"/>
</g>
<g clip-path="url(#clip4_1_464)">
<path fill-rule="evenodd" clip-rule="evenodd" d="M108.625 14.0549L102.858 17.8342L104.67 11.181L99.293 6.86352L106.181 6.53094L108.625 0.083252L111.07 6.53094L117.957 6.86352L112.581 11.181L114.393 17.8342L108.625 14.0549Z" fill="#FFC54F"/>
</g>
<defs>
<clipPath id="clip0_1_464">
<rect width="19.625" height="17.9896" fill="white" transform="translate(0.3125 0.083252)"/>
</clipPath>
<clipPath id="clip1_1_464">
<rect width="19.625" height="17.9896" fill="white" transform="translate(24.9375 0.083252)"/>
</clipPath>
<clipPath id="clip2_1_464">
<rect width="19.625" height="17.9896" fill="white" transform="translate(49.5625 0.083252)"/>
</clipPath>
<clipPath id="clip3_1_464">
<rect width="19.625" height="17.9896" fill="white" transform="translate(74.1875 0.083252)"/>
</clipPath>
<clipPath id="clip4_1_464">
<rect width="19.625" height="17.9896" fill="white" transform="translate(98.8125 0.083252)"/>
</clipPath>
</defs>
</svg>
