<svg width="15" height="14" viewBox="0 0 15 14" fill="none" xmlns="http://www.w3.org/2000/svg">
<path d="M3.20508 1.74977C3.20488 2.1476 3.04665 2.52905 2.76521 2.81021C2.48376 3.09138 2.10215 3.24922 1.70433 3.24902C1.3065 3.24883 0.925052 3.0906 0.643888 2.80915C0.362724 2.52771 0.204879 2.1461 0.205078 1.74827C0.205277 1.35045 0.363503 0.968997 0.644948 0.687833C0.926394 0.406669 1.308 0.248825 1.70583 0.249024C2.10365 0.249223 2.48511 0.407449 2.76627 0.688894C3.04743 0.970339 3.20528 1.35195 3.20508 1.74977ZM3.25008 4.35977H0.250078V13.7498H3.25008V4.35977ZM7.99008 4.35977H5.00508V13.7498H7.96008V8.82227C7.96008 6.07727 11.5376 5.82227 11.5376 8.82227V13.7498H14.5001V7.80227C14.5001 3.17477 9.20508 3.34727 7.96008 5.61977L7.99008 4.35977Z" fill="#75757F"/>
</svg>
