<svg width="211" height="65" viewBox="0 0 211 65" fill="none" xmlns="http://www.w3.org/2000/svg">
<path d="M29.8755 28.2956C32.0297 26.3337 34.9548 25.1886 37.9194 25.0462C38.9341 25.0462 39.9517 25.0519 40.9664 25.0432C40.9146 26.0809 40.9664 27.1214 40.9359 28.159C40.7927 30.4784 39.8938 32.7454 38.3795 34.5649C36.4112 37.0122 33.4008 38.6543 30.2046 39.0787C28.8091 39.2938 27.3922 39.1572 25.9876 39.195C26.012 38.0527 25.9358 36.9076 26.0303 35.7682C26.3045 32.9431 27.7031 30.2371 29.8755 28.2956Z" fill="#81818B"/>
<path d="M41.9053 25.0432C42.9931 25.0549 44.0808 25.0374 45.1716 25.049C47.8864 25.2321 50.5647 26.2261 52.609 27.9498C54.8637 29.7954 56.4088 32.4345 56.8047 35.2538C56.9784 36.5617 56.8687 37.8841 56.9359 39.1978C55.9851 39.195 55.0375 39.1921 54.0867 39.1978C51.75 39.1368 49.4526 38.416 47.4964 37.2011C46.5945 36.5849 45.6683 35.9601 44.9919 35.1055C43.508 33.5244 42.4995 31.5392 42.1186 29.4466C41.8321 27.9933 41.948 26.511 41.9053 25.0432Z" fill="#81818B"/>
<path d="M25.9898 40.0291C26.9557 40.0813 27.9246 39.9854 28.8874 40.0872C33.0099 40.1714 37.0106 42.3804 39.1464 45.7432C40.3714 47.6266 41.0295 49.8589 40.9442 52.0763C40.9411 52.8035 40.9533 53.5269 40.932 54.2509C39.4024 54.2068 37.8576 54.326 36.3432 54.044C32.9795 53.5038 29.8869 51.5939 28.0251 48.8677C26.6144 46.8854 25.9106 44.4644 25.9837 42.0723C25.9837 41.3892 25.9837 40.7091 25.9898 40.0291Z" fill="#81818B"/>
<path d="M51.7879 40.337C53.4454 39.9853 55.1543 40.0434 56.8396 40.0434L56.9131 40.1132C56.8763 41.6333 57.0013 43.1708 56.6815 44.6735C56.008 48.045 53.668 51.0559 50.5204 52.7097C48.5612 53.7506 46.3126 54.2619 44.0731 54.2388C43.357 54.242 42.6379 54.2273 41.922 54.2472C41.922 52.9888 41.8671 51.7248 42.0164 50.4717C42.3637 47.4404 44.0822 44.6182 46.5533 42.7116C48.0828 41.5606 49.8805 40.7265 51.7879 40.337Z" fill="#81818B"/>
<path d="M69.4213 48.6211C69.4213 49.1328 69.2355 49.5657 68.8648 49.92C68.5136 50.2547 68.07 50.422 67.534 50.422C67.0179 50.422 66.5848 50.2547 66.2341 49.92C65.8834 49.5657 65.708 49.1328 65.708 48.6211V30.3775C65.708 29.8658 65.8834 29.4427 66.2341 29.1082C66.6052 28.7539 67.0594 28.5768 67.5959 28.5768C68.1319 28.5768 68.5651 28.7539 68.8953 29.1082C69.246 29.4427 69.4213 29.8658 69.4213 30.3775V48.6211Z" fill="#81818B"/>
<path d="M84.3271 34.6284C84.8631 34.6284 85.3067 34.8055 85.6579 35.1598C86.0081 35.4943 86.1835 35.9174 86.1835 36.4291V43.9273C86.1835 46.0134 85.575 47.6665 84.358 48.8867C83.1406 50.1069 81.3871 50.7168 79.0965 50.7168C76.807 50.7168 75.0529 50.1069 73.836 48.8867C72.6395 47.6665 72.041 46.0134 72.041 43.9273V36.4291C72.041 35.9174 72.2164 35.4943 72.5671 35.1598C72.9178 34.8055 73.3614 34.6284 73.8979 34.6284C74.4345 34.6284 74.8776 34.8055 75.2283 35.1598C75.5795 35.4943 75.7549 35.9174 75.7549 36.4291V43.9273C75.7549 45.1278 76.0336 46.0232 76.5901 46.6136C77.1472 47.1844 77.983 47.4697 79.0965 47.4697C80.2321 47.4697 81.0773 47.1844 81.6349 46.6136C82.1914 46.0232 82.4701 45.1278 82.4701 43.9273V36.4291C82.4701 35.9174 82.6455 35.4943 82.9962 35.1598C83.3469 34.8055 83.7905 34.6284 84.3271 34.6284Z" fill="#81818B"/>
<path d="M97.3533 34.3333C99.0039 34.3333 100.221 34.717 101.005 35.4845C101.789 36.2324 102.305 37.2065 102.552 38.407L102.026 38.1413L102.274 37.669C102.521 37.2163 102.903 36.7342 103.419 36.2225C103.935 35.6912 104.554 35.2484 105.276 34.8941C106.018 34.5202 106.844 34.3333 107.751 34.3333C109.237 34.3333 110.361 34.6383 111.125 35.2483C111.909 35.8584 112.445 36.6752 112.734 37.6986C113.023 38.7022 113.167 39.824 113.167 41.0639V48.6211C113.167 49.1328 112.992 49.5656 112.641 49.92C112.29 50.2547 111.847 50.422 111.31 50.422C110.774 50.422 110.33 50.2547 109.98 49.92C109.629 49.5656 109.454 49.1328 109.454 48.6211V41.0639C109.454 40.4144 109.371 39.8339 109.206 39.3221C109.041 38.7908 108.742 38.3677 108.309 38.0528C107.875 37.7379 107.256 37.5804 106.452 37.5804C105.668 37.5804 104.997 37.7379 104.44 38.0528C103.883 38.3677 103.46 38.7908 103.171 39.3221C102.903 39.8339 102.769 40.4144 102.769 41.0639V48.6211C102.769 49.1328 102.593 49.5656 102.243 49.92C101.892 50.2547 101.448 50.422 100.912 50.422C100.376 50.422 99.9321 50.2547 99.582 49.92C99.2307 49.5656 99.0554 49.1328 99.0554 48.6211V41.0639C99.0554 40.4144 98.973 39.8339 98.8076 39.3221C98.6427 38.7908 98.3435 38.3677 97.9104 38.0528C97.4772 37.7379 96.8577 37.5804 96.0534 37.5804C95.2696 37.5804 94.5992 37.7379 94.0416 38.0528C93.4851 38.3677 93.062 38.7908 92.7732 39.3221C92.5049 39.8339 92.3711 40.4144 92.3711 41.0639V48.6211C92.3711 49.1328 92.1957 49.5656 91.845 49.92C91.4938 50.2547 91.0507 50.422 90.5142 50.422C89.9776 50.422 89.5345 50.2547 89.1833 49.92C88.8326 49.5656 88.6572 49.1328 88.6572 48.6211V36.4292C88.6572 35.9175 88.8326 35.4943 89.1833 35.1598C89.5345 34.8055 89.9776 34.6285 90.5142 34.6285C91.0507 34.6285 91.4938 34.8055 91.845 35.1598C92.1957 35.4943 92.3711 35.9175 92.3711 36.4292V37.6986L91.9064 37.61C92.0923 37.2754 92.3506 36.9211 92.6803 36.5472C93.0105 36.1536 93.4127 35.7895 93.8873 35.455C94.3619 35.1204 94.8879 34.8547 95.4654 34.6579C96.0435 34.4415 96.6729 34.3333 97.3533 34.3333Z" fill="#81818B"/>
<path d="M119.135 48.6211C119.135 49.1328 118.96 49.5656 118.609 49.92C118.259 50.2547 117.815 50.422 117.278 50.422C116.742 50.422 116.298 50.2547 115.948 49.92C115.597 49.5656 115.422 49.1328 115.422 48.6211V36.4292C115.422 35.9175 115.597 35.4943 115.948 35.1598C116.298 34.8055 116.742 34.6285 117.278 34.6285C117.815 34.6285 118.259 34.8055 118.609 35.1598C118.96 35.4943 119.135 35.9175 119.135 36.4292V48.6211ZM117.247 32.7096C116.546 32.7096 116.051 32.6014 115.762 32.3849C115.473 32.1684 115.329 31.7846 115.329 31.2336V30.6727C115.329 30.102 115.484 29.7182 115.793 29.5214C116.123 29.3049 116.619 29.1967 117.278 29.1967C118.001 29.1967 118.506 29.3049 118.795 29.5214C119.084 29.7379 119.228 30.1217 119.228 30.6727V31.2336C119.228 31.8043 119.073 32.1979 118.764 32.4144C118.455 32.6112 117.949 32.7096 117.247 32.7096Z" fill="#81818B"/>
<path d="M130.256 34.3333C131.783 34.3333 132.938 34.6383 133.722 35.2483C134.527 35.8584 135.074 36.6752 135.362 37.6986C135.672 38.7022 135.826 39.824 135.826 41.0639V48.6211C135.826 49.1328 135.651 49.5656 135.3 49.92C134.95 50.2547 134.506 50.422 133.97 50.422C133.434 50.422 132.99 50.2547 132.639 49.92C132.288 49.5656 132.113 49.1328 132.113 48.6211V41.0639C132.113 40.4144 132.02 39.8339 131.835 39.3221C131.67 38.7908 131.36 38.3677 130.906 38.0528C130.453 37.7379 129.802 37.5804 128.956 37.5804C128.131 37.5804 127.43 37.7379 126.852 38.0528C126.295 38.3677 125.862 38.7908 125.552 39.3221C125.263 39.8339 125.119 40.4144 125.119 41.0639V48.6211C125.119 49.1328 124.944 49.5656 124.593 49.92C124.242 50.2547 123.798 50.422 123.262 50.422C122.726 50.422 122.282 50.2547 121.932 49.92C121.581 49.5656 121.405 49.1328 121.405 48.6211V36.4292C121.405 35.9175 121.581 35.4943 121.932 35.1598C122.282 34.8055 122.726 34.6285 123.262 34.6285C123.798 34.6285 124.242 34.8055 124.593 35.1598C124.944 35.4943 125.119 35.9175 125.119 36.4292V37.6986L124.655 37.61C124.841 37.2754 125.109 36.9211 125.459 36.5472C125.81 36.1536 126.223 35.7895 126.697 35.455C127.172 35.1204 127.708 34.8547 128.306 34.6579C128.905 34.4415 129.555 34.3333 130.256 34.3333Z" fill="#81818B"/>
<path d="M154.199 42.5398C154.199 44.1536 153.818 45.5805 153.054 46.8203C152.312 48.0405 151.301 48.995 150.021 49.6837C148.763 50.3728 147.35 50.7168 145.782 50.7168C144.214 50.7168 142.79 50.3728 141.511 49.6837C140.253 48.995 139.242 48.0405 138.478 46.8203C137.736 45.5805 137.364 44.1536 137.364 42.5398C137.364 40.9261 137.736 39.5091 138.478 38.2889C139.242 37.0491 140.253 36.0848 141.511 35.396C142.79 34.6875 144.214 34.3333 145.782 34.3333C147.35 34.3333 148.763 34.6875 150.021 35.396C151.301 36.0848 152.312 37.0491 153.054 38.2889C153.818 39.5091 154.199 40.9261 154.199 42.5398ZM150.486 42.5398C150.486 41.5362 150.269 40.6703 149.836 39.9421C149.423 39.1942 148.856 38.6137 148.134 38.2004C147.433 37.7871 146.648 37.5804 145.782 37.5804C144.915 37.5804 144.121 37.7871 143.399 38.2004C142.697 38.6137 142.13 39.1942 141.697 39.9421C141.284 40.6703 141.078 41.5362 141.078 42.5398C141.078 43.5239 141.284 44.3898 141.697 45.1377C142.13 45.8658 142.697 46.4365 143.399 46.8498C144.121 47.2632 144.915 47.4697 145.782 47.4697C146.648 47.4697 147.433 47.2632 148.134 46.8498C148.856 46.4365 149.423 45.8658 149.836 45.1377C150.269 44.3898 150.486 43.5239 150.486 42.5398Z" fill="#81818B"/>
<path d="M168.041 34.6284C168.577 34.6284 169.021 34.8055 169.372 35.1598C169.722 35.4943 169.898 35.9174 169.898 36.4291V43.9273C169.898 46.0134 169.289 47.6665 168.072 48.8867C166.854 50.1069 165.101 50.7168 162.811 50.7168C160.521 50.7168 158.767 50.1069 157.55 48.8867C156.353 47.6665 155.755 46.0134 155.755 43.9273V36.4291C155.755 35.9174 155.93 35.4943 156.281 35.1598C156.632 34.8055 157.075 34.6284 157.612 34.6284C158.148 34.6284 158.592 34.8055 158.943 35.1598C159.293 35.4943 159.469 35.9174 159.469 36.4291V43.9273C159.469 45.1278 159.747 46.0232 160.305 46.6136C160.862 47.1844 161.697 47.4697 162.811 47.4697C163.945 47.4697 164.792 47.1844 165.348 46.6136C165.906 46.0232 166.185 45.1278 166.185 43.9273V36.4291C166.185 35.9174 166.36 35.4943 166.71 35.1598C167.061 34.8055 167.505 34.6284 168.041 34.6284Z" fill="#81818B"/>
<path d="M171.411 47.9716C171.205 47.6961 171.112 47.3419 171.133 46.9089C171.153 46.4759 171.422 46.102 171.938 45.7871C172.267 45.5903 172.618 45.5116 172.99 45.551C173.36 45.5707 173.722 45.7477 174.073 46.0823C174.671 46.653 175.3 47.0958 175.961 47.4107C176.621 47.7256 177.446 47.883 178.436 47.883C178.746 47.8633 179.085 47.824 179.457 47.765C179.829 47.6863 180.149 47.5288 180.416 47.2927C180.705 47.0368 180.85 46.653 180.85 46.1413C180.85 45.7084 180.695 45.364 180.385 45.1081C180.076 44.8523 179.664 44.6359 179.147 44.4587C178.653 44.2816 178.095 44.1143 177.477 43.9569C176.837 43.7797 176.176 43.583 175.496 43.3665C174.836 43.15 174.227 42.8745 173.67 42.5398C173.114 42.1856 172.659 41.7232 172.308 41.1524C171.958 40.5817 171.783 39.8633 171.783 38.9975C171.783 38.0134 172.071 37.177 172.649 36.4882C173.227 35.7994 173.969 35.2681 174.877 34.8941C175.806 34.5202 176.775 34.3333 177.786 34.3333C178.426 34.3333 179.096 34.4119 179.798 34.5694C180.499 34.7072 181.17 34.9433 181.809 35.2779C182.449 35.5927 182.985 36.0159 183.418 36.5472C183.645 36.8424 183.78 37.1967 183.821 37.61C183.862 38.0233 183.666 38.3972 183.232 38.7318C182.924 38.9679 182.563 39.0762 182.149 39.0565C181.737 39.0171 181.397 38.8794 181.128 38.6432C180.778 38.2102 180.303 37.8658 179.705 37.61C179.127 37.3542 178.457 37.2262 177.693 37.2262C177.384 37.2262 177.044 37.2656 176.672 37.3443C176.321 37.4033 176.012 37.551 175.744 37.7871C175.476 38.0036 175.341 38.3578 175.341 38.8498C175.341 39.3025 175.496 39.6666 175.806 39.9421C176.115 40.1979 176.528 40.4144 177.044 40.5916C177.58 40.749 178.147 40.9065 178.746 41.0639C179.364 41.2213 179.994 41.4083 180.633 41.6247C181.273 41.8413 181.861 42.1266 182.397 42.4808C182.934 42.8351 183.367 43.2976 183.697 43.8683C184.027 44.4193 184.192 45.1278 184.192 45.9938C184.192 46.9975 183.883 47.8536 183.263 48.562C182.645 49.2706 181.871 49.8117 180.943 50.1857C180.014 50.5401 179.065 50.7168 178.095 50.7168C176.878 50.7168 175.661 50.5204 174.444 50.1267C173.227 49.7132 172.215 48.995 171.411 47.9716Z" fill="#81818B"/>
</svg>
