<svg width="211" height="65" viewBox="0 0 211 65" fill="none" xmlns="http://www.w3.org/2000/svg">
<path d="M75.8862 51.8316C73.5295 51.8316 71.4463 51.3567 69.6366 50.4079C67.8264 49.4371 66.4273 48.0673 65.4382 46.2989C64.4496 44.5302 63.9551 42.4487 63.9551 40.0545C63.9551 37.6603 64.4496 35.5789 65.4382 33.8102C66.4273 32.0199 67.8264 30.6503 69.6366 29.7012C71.4463 28.7305 73.5295 28.2452 75.8862 28.2452C77.4859 28.2452 78.8955 28.4178 80.1161 28.7629C81.3578 29.0864 82.4939 29.6041 83.525 30.3159V35.0072C82.5994 34.2308 81.5368 33.67 80.3372 33.3248C79.1585 32.9582 77.8119 32.7748 76.2968 32.7748C74.8872 32.7748 73.6135 33.0768 72.4774 33.6807C71.3623 34.2631 70.4782 35.1043 69.8262 36.2043C69.1736 37.3044 68.8476 38.5877 68.8476 40.0545C68.8476 41.5428 69.1421 42.8477 69.7311 43.9694C70.3417 45.0694 71.1938 45.9214 72.2879 46.5253C73.382 47.1293 74.6451 47.4313 76.0757 47.4313C77.3804 47.4313 78.5165 47.194 79.4846 46.7195V42.3516H75.9177V38.728H84.1245V49.6314C82.0413 51.098 79.2956 51.8316 75.8862 51.8316Z" fill="#81818B"/>
<path d="M85.2324 35.8161H89.8409V38.0486C90.4514 37.2936 91.3035 36.722 92.3976 36.3338C93.4917 35.924 94.7339 35.7191 96.1225 35.7191V39.4398C94.6703 39.4398 93.3867 39.6663 92.2716 40.1192C91.177 40.5722 90.4194 41.2624 89.9989 42.1899V51.3463H85.2324V35.8161Z" fill="#81818B"/>
<path d="M105.283 51.8316C102.379 51.8316 100.095 51.1195 98.4332 49.6958C96.7705 48.2511 95.9395 46.2342 95.9395 43.6458C95.9395 41.079 96.676 39.0515 98.1492 37.5633C99.6433 36.0749 101.769 35.3308 104.525 35.3308C106.335 35.3308 107.871 35.6759 109.134 36.3661C110.396 37.0563 111.354 38.0162 112.006 39.2456C112.659 40.4535 112.985 41.8232 112.985 43.3546V45.3282H100.485C100.821 47.3127 102.631 48.305 105.914 48.305C106.882 48.305 107.882 48.2187 108.913 48.0459C109.944 47.8734 110.838 47.6361 111.596 47.3342V50.764C110.859 51.0871 109.912 51.3462 108.755 51.5405C107.598 51.7342 106.44 51.8316 105.283 51.8316ZM108.471 42.1575C108.408 41.1222 108.029 40.3241 107.335 39.7633C106.64 39.181 105.682 38.8897 104.462 38.8897C103.263 38.8897 102.316 39.181 101.621 39.7633C100.927 40.3457 100.548 41.1438 100.485 42.1575H108.471Z" fill="#81818B"/>
<path d="M122.754 51.8316C119.85 51.8316 117.567 51.1195 115.904 49.6958C114.242 48.2511 113.41 46.2342 113.41 43.6458C113.41 41.079 114.147 39.0515 115.62 37.5633C117.114 36.0749 119.239 35.3308 121.996 35.3308C123.806 35.3308 125.342 35.6759 126.605 36.3661C127.867 37.0563 128.825 38.0162 129.477 39.2456C130.129 40.4535 130.455 41.8232 130.455 43.3546V45.3282H117.956C118.292 47.3127 120.102 48.305 123.385 48.305C124.353 48.305 125.353 48.2187 126.383 48.0459C127.415 47.8734 128.309 47.6361 129.067 47.3342V50.764C128.33 51.0871 127.384 51.3462 126.226 51.5405C125.068 51.7342 123.911 51.8316 122.754 51.8316ZM125.942 42.1575C125.878 41.1222 125.5 40.3241 124.806 39.7633C124.111 39.181 123.154 38.8897 121.933 38.8897C120.733 38.8897 119.787 39.181 119.092 39.7633C118.398 40.3457 118.019 41.1438 117.956 42.1575H125.942Z" fill="#81818B"/>
<path d="M131.515 35.8161H136.123V37.725C136.818 36.927 137.638 36.3338 138.585 35.9455C139.553 35.5357 140.563 35.3308 141.615 35.3308C143.678 35.3308 145.214 35.9024 146.224 37.0456C147.255 38.1672 147.771 39.6878 147.771 41.6075V51.3462H143.004V42.1575C143.004 40.1516 142.099 39.1486 140.289 39.1486C139.49 39.1486 138.743 39.3535 138.048 39.7633C137.354 40.1516 136.765 40.734 136.281 41.5104V51.3462H131.515V35.8161Z" fill="#81818B"/>
<path d="M151.975 33.4219C151.239 33.4219 150.618 33.1739 150.113 32.6777C149.607 32.1817 149.355 31.5561 149.355 30.8012C149.355 30.0679 149.607 29.4531 150.113 28.957C150.618 28.4394 151.239 28.1805 151.975 28.1805C152.711 28.1805 153.332 28.4394 153.837 28.957C154.342 29.4531 154.595 30.0679 154.595 30.8012C154.595 31.5561 154.342 32.1817 153.837 32.6777C153.332 33.1739 152.711 33.4219 151.975 33.4219ZM149.576 35.8161H154.374V51.3462H149.576V35.8161Z" fill="#81818B"/>
<path d="M162.503 51.8316C161.367 51.8316 160.146 51.7018 158.842 51.4431C157.558 51.2059 156.548 50.8608 155.811 50.4079V46.5901C156.653 47.1077 157.663 47.5283 158.842 47.8518C160.02 48.1752 161.114 48.337 162.124 48.337C162.987 48.337 163.619 48.2616 164.018 48.1108C164.418 47.9597 164.618 47.6793 164.618 47.2695C164.618 46.946 164.502 46.6871 164.271 46.493C164.039 46.2773 163.681 46.0939 163.198 45.943C162.735 45.7704 161.955 45.5224 160.861 45.1988C159.578 44.8106 158.568 44.4223 157.832 44.0341C157.116 43.6242 156.569 43.1174 156.19 42.5134C155.832 41.9095 155.653 41.1329 155.653 40.1839C155.653 38.5662 156.274 37.3583 157.516 36.5603C158.778 35.7406 160.483 35.3308 162.63 35.3308C163.681 35.3308 164.765 35.4494 165.88 35.6867C167.016 35.9024 167.89 36.1936 168.501 36.5603V40.281C167.89 39.8712 167.09 39.5368 166.101 39.278C165.134 39.0192 164.187 38.8897 163.261 38.8897C162.397 38.8897 161.724 38.976 161.24 39.1486C160.778 39.3212 160.546 39.6447 160.546 40.1192C160.546 40.529 160.767 40.8418 161.209 41.0575C161.671 41.2732 162.524 41.5428 163.766 41.8664L164.397 42.0281C165.723 42.3948 166.753 42.8046 167.49 43.2576C168.227 43.689 168.742 44.2174 169.037 44.8429C169.353 45.4469 169.511 46.2126 169.511 47.1401C169.511 48.5637 168.911 49.7068 167.712 50.5697C166.512 51.4107 164.776 51.8316 162.503 51.8316Z" fill="#81818B"/>
<path d="M170.612 27.4364H175.379V37.5956C176.094 36.8407 176.904 36.2799 177.809 35.9132C178.714 35.5249 179.682 35.3308 180.713 35.3308C182.775 35.3308 184.312 35.9024 185.322 37.0456C186.353 38.1672 186.868 39.6878 186.868 41.6076V51.3463H182.102V42.1576C182.102 40.1516 181.197 39.1486 179.388 39.1486C178.588 39.1486 177.841 39.3535 177.146 39.7633C176.452 40.1516 175.863 40.734 175.379 41.5104V51.3463H170.612V27.4364Z" fill="#81818B"/>
<path fill-rule="evenodd" clip-rule="evenodd" d="M47.6772 32.0142C47.6772 36.124 44.4271 39.4556 40.4175 39.4556C36.408 39.4556 33.1576 36.124 33.1576 32.0142C33.1576 27.9044 36.408 24.5728 40.4175 24.5728C44.4271 24.5728 47.6772 27.9044 47.6772 32.0142ZM23.5303 38.9148C31.4398 38.3683 38.3332 44.4383 38.9754 52.5628C39.0419 53.4045 39.0387 54.2356 38.9707 55.0504C31.0612 55.5969 24.1678 49.5268 23.5257 41.4024C23.4592 40.5606 23.4624 39.7293 23.5303 38.9148ZM44.0883 54.7659C52.0146 54.1075 57.9363 47.042 57.4034 38.9348C56.6086 38.8651 55.798 38.8618 54.9764 38.93C47.0501 39.5882 41.1283 46.6539 41.6614 54.7611C42.4561 54.831 43.267 54.8341 44.0883 54.7659Z" fill="#81818B"/>
</svg>
