<svg width="148" height="40" viewBox="0 0 148 40" fill="none" xmlns="http://www.w3.org/2000/svg">
<path d="M57.6051 17.3898C57.2585 16.7512 56.7568 16.2678 56.1 15.9394C55.4614 15.5928 54.7043 15.4194 53.8285 15.4194C52.3142 15.4194 51.101 15.9212 50.1887 16.9246C49.2765 17.9098 48.8204 19.2325 48.8204 20.8927C48.8204 22.6624 49.2948 24.0491 50.2435 25.0525C51.2105 26.0377 52.5331 26.5303 54.2117 26.5303C55.3611 26.5303 56.328 26.2384 57.1125 25.6546C57.9153 25.0707 58.4991 24.2315 58.864 23.1368H52.9254V19.6886H63.1058V24.0399C62.7592 25.2075 62.1662 26.2931 61.327 27.2966C60.506 28.3 59.4569 29.1119 58.1798 29.7322C56.9027 30.3525 55.4614 30.6627 53.8559 30.6627C51.9584 30.6627 50.2617 30.2522 48.7657 29.4312C47.2879 28.592 46.1293 27.4334 45.2901 25.9556C44.4691 24.4778 44.0586 22.7902 44.0586 20.8927C44.0586 18.9953 44.4691 17.3077 45.2901 15.8299C46.1293 14.3339 47.2879 13.1753 48.7657 12.3543C50.2435 11.5151 51.9311 11.0955 53.8285 11.0955C56.1273 11.0955 58.0612 11.6519 59.6303 12.7648C61.2175 13.8777 62.2666 15.4194 62.7774 17.3898H57.6051ZM70.3777 17.8003C70.925 16.9611 71.6092 16.3043 72.4302 15.8299C73.2512 15.3373 74.1635 15.091 75.1669 15.091V20.0444H73.8806C72.713 20.0444 71.8373 20.2998 71.2534 20.8106C70.6696 21.3032 70.3777 22.179 70.3777 23.4379V30.5258H65.698V15.2552H70.3777V17.8003ZM84.3549 30.7448C82.8587 30.7448 81.5087 30.4255 80.3046 29.7869C79.1186 29.1483 78.179 28.2362 77.4858 27.0503C76.8107 25.8643 76.4732 24.4778 76.4732 22.8905C76.4732 21.3215 76.8198 19.9441 77.5132 18.7581C78.2064 17.554 79.1552 16.6327 80.3593 15.9941C81.5634 15.3555 82.9135 15.0363 84.4096 15.0363C85.9056 15.0363 87.2557 15.3555 88.4599 15.9941C89.664 16.6327 90.6127 17.554 91.306 18.7581C91.9992 19.9441 92.3459 21.3215 92.3459 22.8905C92.3459 24.4596 91.9902 25.8461 91.2786 27.0503C90.5853 28.2362 89.6275 29.1483 88.4051 29.7869C87.201 30.4255 85.8509 30.7448 84.3549 30.7448ZM84.3549 26.6945C85.2488 26.6945 86.0059 26.3661 86.6263 25.7093C87.2648 25.0525 87.5841 24.1129 87.5841 22.8905C87.5841 21.6682 87.2739 20.7285 86.6537 20.0717C86.0516 19.4149 85.3035 19.0865 84.4096 19.0865C83.4973 19.0865 82.7402 19.4149 82.1381 20.0717C81.5361 20.7103 81.235 21.6499 81.235 22.8905C81.235 24.1129 81.5269 25.0525 82.1108 25.7093C82.7129 26.3661 83.4608 26.6945 84.3549 26.6945ZM116.749 15.2552L112.616 30.5258H107.444L105.036 20.6191L102.546 30.5258H97.4011L93.2414 15.2552H97.9211L100.083 26.1745L102.656 15.2552H107.608L110.208 26.1198L112.343 15.2552H116.749ZM126.197 19.1413H123.679V30.5258H118.999V19.1413H117.303V15.2552H118.999V14.8173C118.999 12.9382 119.537 11.5151 120.614 10.5481C121.691 9.56291 123.268 9.07031 125.348 9.07031C125.695 9.07031 125.95 9.07944 126.115 9.09768V13.0659C125.221 13.0111 124.592 13.1388 124.226 13.449C123.861 13.7592 123.679 14.3156 123.679 15.1184V15.2552H126.197V19.1413ZM143.995 15.2552L134.416 37.778H129.381L132.884 30.0059L126.671 15.2552H131.898L135.429 24.8062L138.932 15.2552H143.995Z" fill="white"/>
<path d="M23.1562 12.6321C23.1562 8.56289 26.455 5.26416 30.5242 5.26416H37.8922V12.6321C37.8922 16.7014 34.5934 20.0001 30.5242 20.0001C26.455 20.0001 23.1562 16.7014 23.1562 12.6321Z" fill="#FF6D35"/>
<path d="M30.5242 37.6773C26.455 37.6773 23.1562 34.3786 23.1562 30.3094V22.9414H30.5242C34.5934 22.9414 37.8922 26.2402 37.8922 30.3094C37.8922 34.3786 34.5934 37.6773 30.5242 37.6773Z" fill="#5CC97B"/>
<path d="M20.8347 20.6522C20.8347 12.4754 14.7085 5.84692 7.15137 5.84692V30.0214C7.15137 34.1096 10.2145 37.424 13.9931 37.424C17.7717 37.424 20.8347 34.1096 20.8347 30.0214V20.6522Z" fill="#3D96F4"/>
</svg>
